<!DOCTYPE svg PUBLIC "-//W3C//DTD SVG 1.1//EN" "http://www.w3.org/Graphics/SVG/1.1/DTD/svg11.dtd">

<!-- Uploaded to: SVG Repo, www.svgrepo.com, Transformed by: SVG Repo Mixer Tools -->
<svg version="1.1" id="Icons" xmlns="http://www.w3.org/2000/svg" xmlns:xlink="http://www.w3.org/1999/xlink" viewBox="0 0 32 32" xml:space="preserve" width="30px" height="30px" fill="#FFD700" stroke="#FFD700" transform="matrix(-1, 0, 0, -1, 0, 0)">

<g id="SVGRepo_bgCarrier" stroke-width="0"/>

<g id="SVGRepo_tracerCarrier" stroke-linecap="round" stroke-linejoin="round"/>

<g id="SVGRepo_iconCarrier"> <style type="text/css"> .st0{fill:none;stroke:#FFD700;stroke-width:2;stroke-linecap:round;stroke-linejoin:round;stroke-miterlimit:10;} </style> <g> <path class="st0" d="M17.9,9.9c-4.6,0.9-6,2.3-6.9,6.9c-0.9-4.6-2.3-6-6.9-6.9C8.7,9,10.1,7.6,11,3C11.9,7.6,13.3,9,17.9,9.9z"/> </g> <g> <path class="st0" d="M21.8,25c-3.2,0.6-4.1,1.6-4.8,4.8c-0.6-3.2-1.6-4.1-4.8-4.8c3.2-0.6,4.1-1.6,4.8-4.8 C17.6,23.4,18.6,24.4,21.8,25z"/> </g> <g> <path class="st0" d="M29,15c-2.6,0.5-3.4,1.3-3.9,3.9c-0.5-2.6-1.3-3.4-3.9-3.9c2.6-0.5,3.4-1.3,3.9-3.9C25.6,13.7,26.4,14.5,29,15 z"/> </g> <line class="st0" x1="5" y1="23" x2="5" y2="23"/> <line class="st0" x1="28" y1="6" x2="28" y2="6"/> </g>

</svg>